<?xml version="1.0" encoding="iso-8859-1"?>
<!-- Generator: Adobe Illustrator 19.0.0, SVG Export Plug-In . SVG Version: 6.00 Build 0)  -->
<svg version="1.1" id="Capa_1" xmlns="http://www.w3.org/2000/svg" xmlns:xlink="http://www.w3.org/1999/xlink" x="0px" y="0px"
	 viewBox="0 0 464 464" style="enable-background:new 0 0 464 464;" xml:space="preserve">
<path style="fill:#FDBD40;" d="M144,48h176v400H144V48z"/>
<path style="fill:#5A6470;" d="M208,352h48v96h-48V352z"/>
<path style="fill:#A7C6D3;" d="M0,224h144v208H0V224z"/>
<path style="fill:#CFDFE8;" d="M16,128h96v96H16V128z"/>
<path style="fill:#A7C6D3;" d="M32,72h64v56H32V72z"/>
<path style="fill:#5A6470;" d="M56,16h16v56H56V16z"/>
<path style="fill:#E9686A;" d="M320,224h144v208H320V224z"/>
<path style="fill:#F98C96;" d="M448,224h-96V72l96,32V224z"/>
<g>
	<path style="fill:#5A6470;" d="M376,120h16v104h-16V120z"/>
	<path style="fill:#5A6470;" d="M408,120h16v104h-16V120z"/>
	<path style="fill:#5A6470;" d="M24,248h96v16H24V248z"/>
	<path style="fill:#5A6470;" d="M24,280h96v16H24V280z"/>
	<path style="fill:#5A6470;" d="M24,312h96v16H24V312z"/>
	<path style="fill:#5A6470;" d="M24,344h96v16H24V344z"/>
	<path style="fill:#5A6470;" d="M184,96h32v32h-32V96z"/>
	<path style="fill:#5A6470;" d="M248,96h32v32h-32V96z"/>
	<path style="fill:#5A6470;" d="M184,160h32v32h-32V160z"/>
	<path style="fill:#5A6470;" d="M248,160h32v32h-32V160z"/>
	<path style="fill:#5A6470;" d="M184,224h32v32h-32V224z"/>
	<path style="fill:#5A6470;" d="M248,224h32v32h-32V224z"/>
	<path style="fill:#5A6470;" d="M184,288h32v32h-32V288z"/>
	<path style="fill:#5A6470;" d="M248,288h32v32h-32V288z"/>
	<path style="fill:#5A6470;" d="M368,384h48v48h-48V384z"/>
	<path style="fill:#5A6470;" d="M344,248h16v16h-16V248z"/>
	<path style="fill:#5A6470;" d="M376,248h32v16h-32V248z"/>
	<path style="fill:#5A6470;" d="M424,248h16v16h-16V248z"/>
	<path style="fill:#5A6470;" d="M344,280h16v16h-16V280z"/>
	<path style="fill:#5A6470;" d="M376,280h32v16h-32V280z"/>
	<path style="fill:#5A6470;" d="M424,280h16v16h-16V280z"/>
	<path style="fill:#5A6470;" d="M344,312h16v16h-16V312z"/>
	<path style="fill:#5A6470;" d="M376,312h32v16h-32V312z"/>
	<path style="fill:#5A6470;" d="M424,312h16v16h-16V312z"/>
	<path style="fill:#5A6470;" d="M344,344h16v16h-16V344z"/>
	<path style="fill:#5A6470;" d="M376,344h32v16h-32V344z"/>
	<path style="fill:#5A6470;" d="M424,344h16v16h-16V344z"/>
</g>
<g>
</g>
<g>
</g>
<g>
</g>
<g>
</g>
<g>
</g>
<g>
</g>
<g>
</g>
<g>
</g>
<g>
</g>
<g>
</g>
<g>
</g>
<g>
</g>
<g>
</g>
<g>
</g>
<g>
</g>
</svg>
