<svg id="Capa_1" enable-background="new 0 0 512 512" height="512" viewBox="0 0 512 512" width="512" xmlns="http://www.w3.org/2000/svg"><path d="m512 327.015c0 73.24-59.58 132.83-132.82 132.83-16.28 0-32.46-3.01-47.58-8.8-7.61 15.43-18.75 28.82-32.81 39.3-12.87 9.59-27.38 16.11-42.79 19.33-7.35 1.54-14.9 2.32-22.58 2.32-44.47 0-83.68-26.53-100.66-66.32-10.5 3.64-21.59 5.53-32.77 5.53-55.14 0-99.99-44.85-99.99-99.98 0-28.5 12.33-55.51 33.11-74.28-21-21.31-33.11-50.25-33.11-80.62 0-63.27 51.47-114.75 114.75-114.75 6.96 0 13.87.63 20.66 1.86 9.37-22.02 24.59-41.57 43.81-56.03 22.4-16.85 48.85-26.24 76.78-27.3 1.78-.07 3.56-.1 5.35-.1 59.05 0 110.91 37.67 129.55 92.82 47.23 8.18 82.85 49.55 82.85 98.49 0 12.36-2.31 24.64-6.73 36.09 28.36 25.08 44.98 61.48 44.98 99.61z" fill="#d1d1d1"/><path d="m512 327.015c0 73.24-59.58 132.83-132.82 132.83-16.28 0-32.46-3.01-47.58-8.8-7.61 15.43-18.75 28.82-32.81 39.3-12.87 9.59-27.38 16.11-42.79 19.33v-509.57c1.78-.07 3.56-.1 5.35-.1 59.05 0 110.91 37.67 129.55 92.82 47.23 8.18 82.85 49.55 82.85 98.49 0 12.36-2.31 24.64-6.73 36.09 28.36 25.08 44.98 61.48 44.98 99.61z" fill="#9fa5a5"/><path d="m277.95 162.565c-7.81 0-15.24 1.66-21.95 4.65-18.96 8.43-32.21 27.45-32.21 49.5v61.71c0 22.05 13.25 41.07 32.21 49.5 6.71 2.99 14.14 4.65 21.95 4.65 29.86 0 54.15-24.29 54.15-54.15v-61.71c0-29.86-24.29-54.15-54.15-54.15zm24.15 115.86c0 13.32-10.83 24.15-24.15 24.15-9.73 0-18.13-5.78-21.95-14.08-1.42-3.07-2.21-6.48-2.21-10.07v-61.71c0-3.59.79-7 2.21-10.07 3.82-8.3 12.22-14.08 21.95-14.08 13.32 0 24.15 10.83 24.15 24.15z" fill="#384949"/><path d="m159.971 332.579c-29.861 0-54.154-24.293-54.154-54.154v-61.707c0-29.861 24.293-54.154 54.154-54.154s54.155 24.293 54.155 54.154h-30c0-13.319-10.836-24.154-24.155-24.154s-24.154 10.835-24.154 24.154v61.707c0 13.319 10.835 24.154 24.154 24.154s24.155-10.835 24.155-24.154h30c0 29.861-24.294 54.154-54.155 54.154z" fill="#384949"/><g fill="#293939"><path d="m427.065 375.427h-82.97v-15c0-11.727 5.769-22.695 15.43-29.34l35.712-24.559c2.845-1.957 4.544-5.187 4.544-8.64 0-7.082-5.761-12.843-12.843-12.843s-12.843 5.761-12.843 12.843v7.158h-30v-7.158c0-23.624 19.219-42.843 42.843-42.843s42.843 19.219 42.843 42.843c0 13.333-6.559 25.804-17.545 33.359l-20.619 14.18h35.447v30z"/><path d="m332.1 216.715v61.71c0 29.86-24.29 54.15-54.15 54.15-7.81 0-15.24-1.66-21.95-4.65v-39.43c3.82 8.3 12.22 14.08 21.95 14.08 13.32 0 24.15-10.83 24.15-24.15v-61.71c0-13.32-10.83-24.15-24.15-24.15-9.73 0-18.13 5.78-21.95 14.08v-39.43c6.71-2.99 14.14-4.65 21.95-4.65 29.86 0 54.15 24.29 54.15 54.15z"/></g></svg>