<svg height="512" viewBox="0 0 512 512" width="512" xmlns="http://www.w3.org/2000/svg"><path d="m488 488h-176l3.77-15.06 20.71-82.85a518.333 518.333 0 0 0 11.63-62.57 520.109 520.109 0 0 0 3.89-63.52h96a520.315 520.315 0 0 0 15.52 126.09z" fill="#ffb531"/><path d="m315.77 472.94c43.6-22.66 101.03-65.54 136.39-143.32a516.334 516.334 0 0 0 11.36 60.47l24.48 97.91h-176z" fill="#ffa912"/><path d="m448 304h-72a8 8 0 0 1 0-16h72a8 8 0 0 1 0 16z" fill="#f98500"/><path d="m480 464h-112a8 8 0 0 1 0-16h112a8 8 0 0 1 0 16z" fill="#f98500"/><path d="m344 488h-176l3.77-15.06 20.71-82.85a518.333 518.333 0 0 0 11.63-62.57 520.109 520.109 0 0 0 3.89-63.52h96a520.315 520.315 0 0 0 15.52 126.09z" fill="#ffb531"/><path d="m171.77 472.94c43.6-22.66 101.03-65.54 136.39-143.32a516.334 516.334 0 0 0 11.36 60.47l24.48 97.91h-176z" fill="#ffa912"/><path d="m304 304h-72a8 8 0 0 1 0-16h72a8 8 0 0 1 0 16z" fill="#f98500"/><path d="m336 464h-112a8 8 0 0 1 0-16h112a8 8 0 0 1 0 16z" fill="#f98500"/><path d="m368 24h-24a63.982 63.982 0 0 0 -64 64h-8a63.982 63.982 0 0 0 -64 64h-40a63.982 63.982 0 0 0 -64 64 31.957 31.957 0 0 0 -32 32v16h80v-24a24 24 0 0 1 24-24h44.375a31.62 31.62 0 0 0 -4.375 16v32h80v-24a23.968 23.968 0 0 1 24-24h40v48h80v-24c0-13.454 11.045-23.862 24.5-24h7.5a23.8 23.8 0 0 0 14.135-4.689c.616-.268 1.26-.484 1.865-.772v-.768a23.849 23.849 0 0 0 8-17.771v-168z" fill="#e0e0de"/><path d="m200 488h-176l3.77-15.06 20.71-82.85a518.333 518.333 0 0 0 11.63-62.57 520.109 520.109 0 0 0 3.89-63.52h96a520.315 520.315 0 0 0 15.52 126.09z" fill="#ffb531"/><path d="m27.77 472.94c43.6-22.66 101.03-65.54 136.39-143.32a516.334 516.334 0 0 0 11.36 60.47l24.48 97.91h-176z" fill="#ffa912"/><path d="m160 304h-72a8 8 0 0 1 0-16h72a8 8 0 0 1 0 16z" fill="#f98500"/><path d="m192 464h-128a8 8 0 0 1 0-16h128a8 8 0 0 1 0 16z" fill="#f98500"/><g fill="#c7c7c5"><path d="m208 160a8 8 0 0 0 8-8 56.063 56.063 0 0 1 56-56h8a8 8 0 0 0 8-8 56.063 56.063 0 0 1 56-56h24v-16h-24a72.108 72.108 0 0 0 -71.559 64h-.441a72.108 72.108 0 0 0 -71.559 64h-32.441a72.1 72.1 0 0 0 -71.637 64.73 39.952 39.952 0 0 0 -32.363 39.27v16h16v-16a23.954 23.954 0 0 1 24-24 8 8 0 0 0 8-8 56.063 56.063 0 0 1 56-56z"/><path d="m288 144a48.052 48.052 0 0 0 -48 48v.852a39.723 39.723 0 0 0 -23.015 14.212 47.652 47.652 0 0 1 -8.985.936h-32a32.036 32.036 0 0 0 -32 32v24h16v-24a16.016 16.016 0 0 1 16-16h32c.305 0 .606-.05.912-.055a40.063 40.063 0 0 0 -.912 8.055v32h16v-32a23.921 23.921 0 0 1 23.3-23.926 7.257 7.257 0 0 0 .965-.078 8 8 0 0 0 7.735-7.996v-8a32.036 32.036 0 0 1 32-32z"/><path d="m464.441 208c-18.191.172-32.441 14.227-32.441 32v24h16v-24c0-8.887 7.289-15.914 16.594-16a63.436 63.436 0 0 0 26.844-6.234l-6.875-14.446a47.567 47.567 0 0 1 -20.122 4.68z"/><path d="m440 128a56.09 56.09 0 0 0 -55.527 48.711 40.072 40.072 0 0 0 -31.599 31.289h-32.874a32.036 32.036 0 0 0 -32 32v24h16v-24a16.016 16.016 0 0 1 16-16h32v40h16v-48a24.027 24.027 0 0 1 24-24 8 8 0 0 0 8-8 40.047 40.047 0 0 1 40-40z"/><path d="m464 16a48.078 48.078 0 0 0 -47.332 40h-8.668a48.052 48.052 0 0 0 -48 48h16a32.036 32.036 0 0 1 32-32h16a8 8 0 0 0 8-8 32.036 32.036 0 0 1 32-32h32v-16z"/><path d="m320 120h16v16h-16z"/><path d="m464 80h16v16h-16z"/><path d="m480 160h16v16h-16z"/></g></svg>