<svg height="480pt" viewBox="-48 0 480 480" width="480pt" xmlns="http://www.w3.org/2000/svg"><path d="m328 192v-104c0-30.929688-25.070312-56-56-56h-.449219c-17.574219-19.640625-43.117187-32-71.550781-32h-48c-53.015625 0-96 42.984375-96 96v96" fill="#976947"/><path d="m280 224h16c17.671875 0 32-14.328125 32-32s-14.328125-32-32-32h-16" fill="#efbe9a"/><path d="m104 224h-16c-17.671875 0-32-14.328125-32-32s14.328125-32 32-32h16" fill="#db9b7c"/><path d="m296 80-26.542969 9.953125c-24.769531 9.285156-51.007812 14.046875-77.457031 14.046875s-52.6875-4.761719-77.457031-14.046875l-26.542969-9.953125v120c0 57.441406 46.558594 104 104 104s104-46.558594 104-104zm0 0" fill="#db9b7c"/><path d="m180 303.257812c51.777344-5.960937 92-49.882812 92-103.257812v-111l-2.542969.953125c-24.769531 9.285156-51.007812 14.046875-77.457031 14.046875s-52.6875-4.761719-77.457031-14.046875l-26.542969-9.953125v120c0 53.375 40.222656 97.296875 92 103.257812zm0 0" fill="#efbe9a"/><path d="m280 336 54.390625 12.550781c29.042969 6.707031 49.609375 32.5625 49.609375 62.359375v69.089844h-384v-69.089844c0-29.796875 20.566406-55.652344 49.609375-62.359375l54.390625-12.550781" fill="#b8cbd9"/><path d="m302.390625 348.550781-54.390625-12.550781h-144l-54.390625 12.550781c-29.042969 6.707031-49.609375 32.5625-49.609375 62.359375v69.089844h352v-69.089844c0-29.796875-20.566406-55.652344-49.609375-62.359375zm0 0" fill="#e8eff4"/><path d="m256 320-56 56 32 32 48-72zm0 0" fill="#b8cbd9"/><path d="m128 320 56 56-32 32-48-72zm0 0" fill="#b8cbd9"/><path d="m208 480-8-72h-16l-8 72" fill="#758190"/><path d="m152 296-8 40 48 48 48-48-8-40" fill="#efbe9a"/><path d="m216 392-24 32-24-32 24-24zm0 0" fill="#8892a0"/><path d="m144 160c-8.824219 0-16-7.175781-16-16s7.175781-16 16-16 16 7.175781 16 16-7.175781 16-16 16zm0-16.007812" fill="#857970"/><path d="m240 160c-8.824219 0-16-7.175781-16-16s7.175781-16 16-16 16 7.175781 16 16-7.175781 16-16 16zm0-16.007812" fill="#857970"/><g fill="#8892a0"><path d="m88 162.414062 51.136719 42.617188 10.238281-12.296875-61.375-51.148437zm0 0"/><path d="m112.847656 267.359375 37.839844-28.375-9.597656-12.800781-37.609375 28.199218c2.808593 4.570313 5.910156 8.921876 9.367187 12.976563zm0 0"/><path d="m296 141.585938-61.375 51.148437 10.238281 12.296875 51.136719-42.617188zm0 0"/><path d="m280.519531 254.390625-37.609375-28.199219-9.597656 12.800782 37.839844 28.375c3.457031-4.0625 6.558594-8.414063 9.367187-12.976563zm0 0"/></g><path d="m256 208c0 26.511719-28.65625 64-64 64s-64-37.488281-64-64 28.65625-32 64-32 64 5.488281 64 32zm0 0" fill="#e8eff4"/></svg>